# xmcd CD database file
#
# Track frame offsets:
#	150
#	13459
#	27527
#	43225
#	56893
#	68548
#	78921
#	93956
#	106659
#	119195
#	133430
#	147953
#	164060
#	174414
#	189550
#	199637
#	213260
#	229546
#
# Disc length: 3238 seconds
#
# Revision: 0
# Processed by: cddbd v1.5.2PL0 Copyright (c) Steve Scherf et al.
# Submitted via: CDex 1.51
#
DISCID=0b0ca412
DTITLE=Glenn Miller - Masters of Music
DYEAR=2005
DGENRE=Jazz
TTITLE0=April Played the Fiddle
TTITLE1=Moments in The Moonlight
TTITLE2=Skylark
TTITLE3=Long Tail Mama
TTITLE4=I'd Know You Anywhere
TTITLE5=Peekaboo To You
TTITLE6=Faithful Forever
TTITLE7=Johnson Rag
TTITLE8=Fresh As a Daisy
TTITLE9=Wonderful One
TTITLE10=My Melancholy Baby
TTITLE11=In The Mood
TTITLE12=Boog It
TTITLE13=Stardust
TTITLE14=Danny Boy
TTITLE15=Here We Go Again
TTITLE16=A Nightingale Sang In Berkeley Square
TTITLE17=Rug Cuttler's Swing
EXTD=YEAR: 2005
EXTT0=
EXTT1=
EXTT2=
EXTT3=
EXTT4=
EXTT5=
EXTT6=
EXTT7=
EXTT8=
EXTT9=
EXTT10=
EXTT11=
EXTT12=
EXTT13=
EXTT14=
EXTT15=
EXTT16=
EXTT17=
PLAYORDER=
